<?xml version="1.0" standalone="no"?>
<!DOCTYPE svg PUBLIC "-//W3C//DTD SVG 20010904//EN"
 "http://www.w3.org/TR/2001/REC-SVG-20010904/DTD/svg10.dtd">
<svg version="1.0" xmlns="http://www.w3.org/2000/svg"
 width="750.000000pt" height="500.000000pt" viewBox="0 0 750.000000 500.000000"
 preserveAspectRatio="xMidYMid meet">
<metadata>
Created by potrace 1.16, written by Peter Selinger 2001-2019
</metadata>
<g transform="translate(0.000000,500.000000) scale(0.100000,-0.100000)"
fill="#000000" stroke="none">
<path d="M2454 4954 c3 -26 6 -80 6 -121 0 -72 1 -73 21 -62 12 6 36 8 53 5
25 -5 37 -2 51 14 10 11 22 20 27 20 16 0 8 -37 -12 -55 -11 -10 -20 -31 -20
-46 0 -31 -31 -59 -65 -59 -42 0 -50 -14 -35 -62 7 -24 16 -47 20 -51 4 -4 3
-31 -1 -59 -6 -38 -17 -60 -41 -85 -25 -26 -33 -42 -33 -73 0 -50 10 -59 35
-32 19 20 34 25 125 37 21 3 42 9 45 14 8 13 74 45 88 43 18 -4 15 47 -3 54
-8 4 -15 14 -15 23 0 26 70 94 123 121 27 14 58 37 69 53 22 31 54 33 72 5 15
-24 -3 -52 -35 -56 -13 -2 -42 -22 -65 -45 -22 -23 -58 -52 -80 -65 -36 -21
-39 -26 -36 -61 3 -33 0 -40 -31 -64 -44 -33 -54 -44 -98 -97 -47 -59 -71 -80
-81 -74 -4 3 -8 0 -8 -6 0 -22 -46 -4 -81 31 -20 20 -45 42 -56 48 -19 9 -22
7 -27 -22 -3 -18 -35 -90 -70 -160 -35 -69 -57 -123 -49 -118 13 7 44 4 128
-13 17 -4 42 -9 58 -12 24 -5 27 -3 27 19 0 14 9 35 21 48 11 13 17 17 13 9
-7 -13 -5 -13 9 -1 15 12 17 10 17 -18 0 -36 6 -38 33 -13 11 9 17 11 13 4 -5
-8 22 6 58 30 36 24 68 51 72 60 14 45 56 61 74 29 16 -31 2 -51 -35 -51 -18
0 -39 -7 -46 -16 -7 -9 -40 -34 -74 -56 -75 -50 -105 -81 -105 -107 0 -11 -9
-25 -19 -31 -27 -14 -31 -13 -31 10 0 16 -7 20 -35 20 -19 0 -43 -4 -53 -9 -9
-5 -29 -14 -43 -21 -15 -7 -60 -43 -100 -82 -41 -38 -91 -81 -113 -95 -21 -13
-76 -61 -122 -106 -101 -98 -117 -108 -169 -105 -37 2 -41 0 -51 -30 -13 -41
-28 -56 -134 -128 -77 -52 -90 -58 -140 -59 l-55 -1 -6 -37 c-7 -46 -44 -87
-78 -88 -14 0 -20 -3 -13 -6 14 -5 17 -33 2 -33 -5 0 -13 6 -17 14 -6 11 -27
2 -93 -40 -46 -30 -98 -58 -115 -63 -36 -10 -97 -3 -89 10 8 13 -74 11 -99 -3
-12 -6 -34 -23 -49 -37 -15 -14 -67 -46 -115 -71 l-88 -46 -9 -84 -9 -85 -134
-95 c-74 -52 -148 -101 -164 -108 -24 -10 -29 -18 -29 -47 0 -28 -5 -38 -25
-47 -51 -23 -102 47 -59 83 9 7 33 14 53 14 29 1 65 22 187 109 l152 108 7 73
c4 51 3 79 -6 93 -10 16 -10 26 0 51 19 44 96 122 166 167 33 21 61 41 62 44
6 11 100 2 136 -13 69 -29 90 -26 156 23 35 27 47 40 35 40 -16 0 -17 2 -4 10
13 9 13 10 0 10 -11 1 -10 4 5 16 20 16 20 16 -3 9 -27 -8 -89 -14 -155 -14
-34 -1 -52 -6 -64 -21 -21 -24 -51 -26 -60 -4 -5 13 -15 15 -51 9 -44 -7 -54
-10 -99 -33 -13 -7 -28 -12 -34 -12 -6 0 -20 -11 -31 -25 -32 -41 -118 -75
-118 -47 0 5 -16 16 -35 25 -32 15 -40 30 -36 65 1 8 -8 22 -20 33 -26 22 -36
20 -135 -27 -81 -39 -95 -41 -119 -14 -13 14 -15 26 -10 47 5 15 8 31 7 36 -1
4 2 7 7 7 4 0 8 13 7 30 -1 23 -7 32 -28 39 -14 5 -29 7 -32 4 -3 -4 -6 -47
-6 -96 0 -77 -2 -88 -16 -83 -9 3 -18 6 -20 6 -2 0 -4 43 -4 95 0 69 3 95 13
95 6 0 -11 13 -40 29 -28 16 -67 38 -87 50 l-36 23 0 -741 0 -740 173 108
c239 150 343 201 260 128 -51 -45 -195 -149 -325 -236 l-108 -71 0 -930 0
-930 1628 0 1629 0 19 21 c19 21 256 201 309 235 17 10 57 39 90 64 195 148
578 400 608 400 18 0 -14 -27 -160 -139 -271 -206 -537 -391 -773 -540 l-65
-41 1842 0 1843 0 -10 26 c-20 53 -13 78 37 119 25 21 41 41 35 43 -12 4 -122
-67 -122 -79 0 -16 -61 -40 -93 -37 -21 2 -36 11 -46 29 -23 41 -8 73 51 110
79 49 278 211 272 221 -11 17 -41 6 -94 -35 -248 -193 -275 -212 -245 -175 17
21 33 38 36 38 4 0 9 8 12 18 2 11 57 59 121 108 96 73 116 93 116 115 0 34
29 59 67 59 34 0 51 -15 62 -56 l7 -28 23 32 c16 24 25 55 31 115 20 180 23
185 170 274 l95 58 3 118 c1 64 0 117 -3 117 -3 0 -96 -69 -207 -152 -110 -84
-235 -179 -277 -210 l-77 -57 -57 21 -58 21 -233 -156 c-128 -86 -265 -183
-304 -214 -84 -68 -90 -89 -41 -160 29 -42 34 -44 65 -39 18 4 62 1 98 -5 95
-18 80 -27 369 216 27 22 65 49 85 60 20 11 81 63 135 117 103 103 128 116
161 79 26 -28 16 -62 -24 -88 -19 -13 -43 -29 -54 -36 -10 -6 -57 -41 -105
-77 -47 -36 -94 -69 -103 -75 -19 -12 -158 -110 -173 -123 -30 -24 -144 -99
-168 -110 -32 -14 -67 -16 -67 -4 0 11 -127 35 -140 27 -6 -4 -10 -13 -10 -21
0 -8 -10 -14 -26 -14 -31 0 -214 -107 -214 -126 0 -18 -35 -35 -55 -28 -10 4
-15 16 -13 33 2 21 10 27 38 32 19 3 74 29 123 58 97 58 96 54 40 128 -39 53
-55 57 -114 28 -28 -15 -53 -25 -55 -23 -2 3 14 22 36 43 45 44 48 62 20 123
-22 49 -11 56 22 12 12 -16 30 -32 40 -36 26 -8 164 72 434 253 l231 154 40
-16 c23 -9 54 -15 69 -13 17 2 132 82 300 208 l273 205 0 1053 1 1052 -57 -37
c-32 -21 -60 -41 -63 -44 -11 -13 -210 -139 -219 -139 -5 0 -16 -8 -23 -18 -7
-11 -30 -25 -52 -32 -21 -7 -65 -28 -98 -48 -32 -19 -61 -32 -64 -29 -13 12
107 99 473 344 l102 68 1 803 0 802 -1239 0 -1239 0 -48 -43 c-27 -24 -70 -59
-95 -78 -25 -19 -81 -62 -125 -97 -43 -34 -83 -66 -89 -70 -5 -4 -50 -39 -100
-77 -49 -39 -108 -83 -130 -98 -22 -15 -62 -42 -89 -62 -28 -19 -52 -32 -55
-30 -10 11 113 123 288 265 130 105 266 214 315 252 l49 38 -1248 0 -1248 0 7
-46z m1106 -78 c0 -3 -4 -8 -10 -11 -5 -3 -10 -1 -10 4 0 6 5 11 10 11 6 0 10
-2 10 -4z m-595 -91 c0 -13 -8 -21 -22 -23 -17 -3 -23 2 -23 16 0 10 3 22 7
26 13 13 38 1 38 -19z m545 -29 c0 -6 -112 -91 -138 -105 -63 -34 -20 16 61
70 54 36 77 46 77 35z m-490 -351 c0 -8 -7 -15 -15 -15 -8 0 -15 7 -15 15 0 8
7 15 15 15 8 0 15 -7 15 -15z m710 -115 c0 -5 -4 -10 -10 -10 -5 0 -10 5 -10
10 0 6 5 10 10 10 6 0 10 -4 10 -10z m890 -70 c0 -5 -4 -10 -10 -10 -5 0 -10
5 -10 10 0 6 5 10 10 10 6 0 10 -4 10 -10z m-1870 -230 c0 -13 -7 -20 -20 -20
-13 0 -20 7 -20 20 0 13 7 20 20 20 13 0 20 -7 20 -20z m344 -45 c20 -30 20
-44 0 -83 -12 -25 -22 -32 -44 -32 -33 0 -70 40 -70 76 0 58 83 87 114 39z
m4036 -344 c0 -11 -5 -23 -11 -27 -15 -9 -33 12 -26 30 9 23 37 20 37 -3z
m-4370 -6 c0 -8 -7 -15 -15 -15 -8 0 -15 7 -15 15 0 8 7 15 15 15 8 0 15 -7
15 -15z m185 -215 c0 -20 -6 -26 -28 -28 -18 -2 -29 2 -33 12 -11 28 4 48 33
44 22 -2 28 -8 28 -28z m-625 -25 c0 -8 -7 -15 -15 -15 -8 0 -15 7 -15 15 0 8
7 15 15 15 8 0 15 -7 15 -15z m141 -34 c-6 -10 -40 -42 -75 -70 -36 -29 -78
-63 -93 -76 -49 -43 -258 -153 -269 -142 -10 9 28 49 99 104 32 25 70 56 84
69 14 13 30 24 35 24 6 0 22 8 36 19 42 30 162 91 178 91 11 0 12 -4 5 -19z
m-631 -12 c-75 -61 -85 -67 -89 -58 -11 32 41 77 89 78 l25 0 -25 -20z m-1422
-246 c5 -17 -26 -29 -40 -15 -6 6 -7 15 -3 22 9 14 37 9 43 -7z m6252 -73 c0
-5 -2 -10 -4 -10 -3 0 -8 5 -11 10 -3 6 -1 10 4 10 6 0 11 -4 11 -10z m-739
-26 c9 -12 24 -15 51 -11 42 6 46 2 21 -25 -13 -15 -14 -24 -6 -53 l11 -34
-29 22 c-25 18 -34 20 -59 10 -32 -12 -40 -3 -15 17 18 15 20 61 3 78 -8 8 -8
12 -1 12 6 0 17 -7 24 -16z m-5481 -3 c0 -13 -99 -101 -139 -123 -67 -37 -106
-62 -112 -71 -9 -12 -39 -2 -39 13 0 6 10 14 23 19 13 5 43 28 68 51 79 75
199 142 199 111z m1114 -167 c19 -18 21 -55 4 -72 -31 -31 -88 -4 -88 42 0 20
28 46 50 46 10 0 26 -7 34 -16z m301 -114 c0 -7 -6 -15 -12 -17 -8 -3 -13 4
-13 17 0 13 5 20 13 18 6 -3 12 -11 12 -18z m5539 -123 c15 -41 -2 -62 -51
-63 -34 -1 -63 -18 -194 -110 l-154 -110 -10 -104 -10 -104 -65 -48 c-36 -26
-88 -65 -117 -85 l-52 -36 -106 18 -105 18 -101 -69 c-118 -80 -134 -99 -119
-138 15 -40 13 -42 -14 -16 -25 22 -44 23 -91 5 -18 -7 -18 -6 4 18 20 22 22
32 16 68 l-7 42 27 -21 c15 -12 32 -22 37 -22 4 0 59 34 121 75 69 46 122 75
138 75 15 0 64 -7 109 -16 l82 -15 113 81 113 81 7 103 7 103 161 115 c124 87
163 120 165 139 6 36 22 50 56 47 23 -2 33 -10 40 -31z m-528 -73 c-5 -13 -10
-14 -18 -6 -6 6 -8 18 -4 28 5 13 10 14 18 6 6 -6 8 -18 4 -28z m-5606 6 c0
-5 -4 -10 -10 -10 -5 0 -10 5 -10 10 0 6 5 10 10 10 6 0 10 -4 10 -10z m-391
-46 c2 -2 -1 -15 -7 -29 -9 -20 -19 -25 -47 -25 -22 0 -34 4 -30 10 3 6 0 10
-7 10 -7 0 0 12 15 26 26 22 57 25 76 8z m-469 -54 c0 -13 -7 -20 -20 -20 -19
0 -27 20 -13 33 13 14 33 6 33 -13z m5920 -100 c0 -5 -4 -10 -10 -10 -5 0 -10
5 -10 10 0 6 5 10 10 10 6 0 10 -4 10 -10z m-4900 -10 c0 -5 -4 -10 -10 -10
-5 0 -10 5 -10 10 0 6 5 10 10 10 6 0 10 -4 10 -10z m4220 -15 c0 -9 -6 -12
-15 -9 -8 4 -15 10 -15 15 0 5 7 9 15 9 8 0 15 -7 15 -15z m-4509 -135 c5 0
26 7 46 15 56 23 61 18 21 -21 -37 -34 -46 -60 -30 -79 5 -6 14 -23 21 -39
l12 -29 -37 33 c-37 32 -50 34 -112 15 l-23 -8 25 38 c29 43 31 59 11 95 -23
41 -17 44 20 11 20 -17 40 -31 46 -31z m6359 41 c0 -4 -49 -42 -110 -86 -60
-43 -110 -82 -110 -87 0 -4 -9 -8 -20 -8 -25 0 -27 28 -2 37 26 10 196 132
205 148 7 14 37 10 37 -4z m-1400 -136 c0 -9 -6 -12 -15 -9 -8 4 -15 10 -15
15 0 5 7 9 15 9 8 0 15 -7 15 -15z m-530 -5 c0 -5 -4 -10 -10 -10 -5 0 -10 5
-10 10 0 6 5 10 10 10 6 0 10 -4 10 -10z m1498 -172 c7 -7 12 -24 12 -38 0
-33 -17 -50 -50 -50 -19 0 -91 -48 -240 -160 -117 -88 -216 -160 -219 -160 -3
1 -34 7 -68 14 l-62 13 -123 -82 c-68 -45 -139 -98 -158 -117 -19 -19 -62 -47
-95 -63 -33 -16 -149 -87 -257 -158 l-198 -129 0 -67 c0 -54 4 -70 20 -84 24
-20 26 -50 4 -71 -18 -19 -28 -20 -55 -6 -23 13 -26 65 -4 77 10 6 15 31 17
87 l3 79 395 264 c217 145 409 271 426 279 26 13 38 13 91 1 l60 -14 210 157
c193 145 210 161 206 184 -3 14 0 33 7 41 15 18 61 20 78 3z m-6698 -18 c0 -5
-4 -10 -10 -10 -5 0 -10 5 -10 10 0 6 5 10 10 10 6 0 10 -4 10 -10z m5080 -45
c0 -8 -7 -15 -15 -15 -8 0 -15 7 -15 15 0 8 7 15 15 15 8 0 15 -7 15 -15z
m1938 -8 c4 -20 -25 -34 -40 -19 -15 15 -1 44 19 40 10 -2 19 -11 21 -21z
m-6888 9 c0 -3 -4 -8 -10 -11 -5 -3 -10 -1 -10 4 0 6 5 11 10 11 6 0 10 -2 10
-4z m6805 -72 c0 -10 -8 -20 -18 -22 -22 -4 -35 27 -16 39 20 12 34 5 34 -17z
m-2547 4 c30 -30 -2 -93 -36 -71 -21 13 -27 50 -12 69 15 17 32 18 48 2z
m1950 -31 c2 -10 -3 -17 -12 -17 -18 0 -29 16 -21 31 9 14 29 6 33 -14z m520
-30 c4 -21 -25 -34 -40 -19 -8 8 -8 16 2 27 16 19 34 15 38 -8z m-1084 -4 c4
-9 1 -23 -7 -30 -12 -12 -16 -12 -27 1 -10 13 -10 19 0 31 16 19 26 19 34 -2z
m1003 -49 c3 -8 -1 -22 -9 -30 -13 -13 -16 -13 -28 0 -10 13 -10 19 0 31 16
19 29 19 37 -1z m-1082 -20 c0 -10 -8 -20 -18 -22 -22 -4 -35 27 -16 39 20 12
34 5 34 -17z m1005 -44 c8 -15 6 -21 -9 -29 -26 -14 -50 12 -31 34 17 20 27
19 40 -5z m-1085 -15 c0 -11 -7 -21 -16 -23 -18 -3 -33 23 -23 39 10 17 39 5
39 -16z m95 10 c0 -8 -7 -15 -15 -15 -16 0 -20 12 -8 23 11 12 23 8 23 -8z
m904 -85 c-12 -12 -16 -12 -31 3 -17 17 -17 19 1 32 17 13 21 12 32 -3 10 -14
10 -20 -2 -32z m460 -6 c28 -28 12 -64 -28 -64 -12 0 -119 -74 -239 -164
l-217 -164 -43 10 c-23 5 -64 10 -92 11 -46 2 -50 4 -50 26 0 13 8 29 18 35
15 9 22 7 37 -11 11 -14 39 -28 69 -35 59 -13 23 -34 299 172 155 115 181 139
182 162 0 38 36 50 64 22z m-1621 -35 c14 -23 2 -49 -24 -49 -12 0 -116 -71
-238 -160 l-216 -161 -77 2 -78 2 -125 -83 c-68 -45 -122 -87 -119 -92 8 -13
-15 -38 -36 -38 -10 0 -23 6 -29 14 -17 20 3 56 31 56 12 0 78 37 145 82 l124
81 79 1 79 1 210 155 c161 118 211 160 211 177 0 34 44 43 63 12z m1315 -72
c3 -12 -3 -17 -22 -17 -25 0 -35 18 -19 34 12 12 38 2 41 -17z m-375 -27 c41
-6 64 -6 76 2 35 22 76 -17 51 -47 -16 -19 -47 -19 -57 -1 -9 16 -129 39 -147
29 -39 -25 -664 -458 -678 -470 -20 -18 -25 -101 -8 -133 15 -29 2 -52 -29
-48 -31 4 -41 38 -16 58 8 7 15 27 15 45 0 54 12 96 29 102 9 3 25 14 36 24
37 33 648 449 659 449 6 0 37 -4 69 -10z m-105 -358 c3 -28 -1 -34 -29 -46
-18 -8 -39 -12 -45 -9 -18 7 -271 -174 -277 -198 -7 -26 -35 -35 -54 -16 -19
19 -10 47 15 47 28 0 280 182 310 224 20 29 32 36 51 34 21 -2 27 -9 29 -36z
m-1498 -227 c12 -15 5 -54 -11 -56 -5 -1 -21 -2 -36 -3 -17 -1 -62 -26 -110
-60 l-83 -59 6 -52 6 -52 -86 -59 c-52 -36 -86 -66 -86 -76 0 -25 -35 -41 -60
-28 -38 20 -15 75 28 68 12 -2 54 20 101 52 l81 55 -5 55 -6 55 95 65 c53 36
96 72 96 81 0 9 3 19 7 22 12 12 50 7 63 -8z m369 -204 c51 -63 90 -118 89
-122 -3 -7 -124 -106 -199 -162 l-37 -28 -91 116 c-50 63 -91 119 -91 124 0 8
231 193 236 189 1 -2 43 -54 93 -117z m-929 99 c0 -5 -4 -10 -10 -10 -5 0 -10
5 -10 10 0 6 5 10 10 10 6 0 10 -4 10 -10z m-2087 -210 c-6 -23 -28 -16 -30 9
-1 13 4 17 17 14 11 -3 16 -11 13 -23z m3427 -30 c8 -15 6 -21 -9 -29 -26 -14
-50 12 -31 34 17 20 27 19 40 -5z m-85 -89 c-13 -14 -17 -13 -32 2 -17 17 -17
19 2 33 18 13 21 13 32 -3 11 -14 11 -20 -2 -32z m-72 -35 c3 -8 -1 -20 -9
-27 -12 -10 -18 -9 -32 5 -15 15 -15 18 -2 26 21 14 37 12 43 -4z m-84 -60
c17 -20 -13 -43 -34 -26 -12 10 -13 16 -4 26 6 8 15 14 19 14 4 0 13 -6 19
-14z m-78 -62 c10 -13 10 -17 -2 -25 -20 -13 -36 -11 -42 5 -5 13 10 36 24 36
4 0 12 -7 20 -16z m-80 -60 c11 -14 10 -18 -6 -30 -17 -13 -21 -13 -32 2 -9
13 -10 21 -2 31 15 17 24 16 40 -3z"/>
<path d="M7330 2554 c-11 -12 -10 -18 3 -32 16 -15 18 -15 34 0 13 14 14 20 3
32 -7 9 -16 16 -20 16 -4 0 -13 -7 -20 -16z"/>
<path d="M7000 1834 c-11 -12 -10 -18 3 -32 16 -15 18 -15 34 0 13 14 14 20 3
32 -7 9 -16 16 -20 16 -4 0 -13 -7 -20 -16z"/>
<path d="M5575 750 c-4 -7 -3 -16 3 -22 14 -14 45 -2 40 15 -6 16 -34 21 -43
7z"/>
<path d="M7397 1443 c-4 -3 -7 -12 -7 -20 0 -15 26 -18 34 -4 7 11 -18 33 -27
24z"/>
<path d="M5770 1400 c0 -5 5 -10 10 -10 6 0 10 5 10 10 0 6 -4 10 -10 10 -5 0
-10 -4 -10 -10z"/>
<path d="M4890 870 c0 -5 5 -10 10 -10 6 0 10 5 10 10 0 6 -4 10 -10 10 -5 0
-10 -4 -10 -10z"/>
<path d="M6845 1301 c-3 -5 -1 -12 5 -16 5 -3 10 1 10 9 0 18 -6 21 -15 7z"/>
<path d="M5952 679 c2 -6 8 -10 13 -10 5 0 11 4 13 10 2 6 -4 11 -13 11 -9 0
-15 -5 -13 -11z"/>
<path d="M5320 534 c-52 -42 -96 -77 -97 -78 -4 -4 149 -191 156 -191 4 0 51
33 103 74 l96 75 -77 97 c-42 54 -78 98 -81 99 -3 0 -48 -34 -100 -76z m154
-35 c31 -39 56 -74 56 -78 0 -7 -109 -97 -137 -114 -7 -5 -35 21 -72 67 l-61
75 72 60 c40 33 76 60 80 61 4 0 32 -32 62 -71z"/>
<path d="M5351 490 c-57 -45 -57 -45 2 -115 l34 -39 57 43 c39 29 54 46 48 54
-47 63 -77 97 -83 97 -4 0 -30 -18 -58 -40z m99 -60 c0 -5 -12 -18 -27 -29
l-26 -21 -24 22 c-30 28 -29 42 4 68 l28 22 22 -27 c13 -14 23 -30 23 -35z"/>
<path d="M2494 4746 c-10 -26 0 -51 22 -54 13 -2 24 4 28 13 7 20 1 31 -25 45
-15 8 -21 7 -25 -4z"/>
<path d="M267 2417 c-8 -21 8 -39 29 -35 27 5 25 42 -2 46 -12 2 -24 -3 -27
-11z"/>
<path d="M7450 873 c-141 -109 -153 -126 -140 -208 15 -86 12 -213 -6 -246
-15 -30 -15 -31 8 -24 13 4 35 16 50 26 31 23 81 25 98 4 7 -8 16 -13 20 -10
5 3 11 -3 13 -12 3 -10 5 3 6 28 1 31 -4 51 -14 59 -23 19 -68 88 -100 154
-28 58 -28 58 -10 92 10 19 40 50 67 70 52 37 62 51 56 82 -3 18 -7 16 -48
-15z"/>
<path d="M7080 515 c-11 -13 -11 -19 3 -32 21 -21 49 -9 45 19 -4 28 -30 35
-48 13z"/>
</g>
</svg>
